<svg width="30" height="24" viewBox="0 0 30 24" fill="none" xmlns="http://www.w3.org/2000/svg">
<path d="M4.5 0H25.5C27.1406 0 28.5 1.35938 28.5 3V11.6719C27.7031 10.9688 26.625 10.5 25.5 10.5V3H4.5V10.5C3.32812 10.5 2.29688 10.9688 1.5 11.6719V3C1.5 1.35938 2.8125 0 4.5 0ZM7.5 15C7.5 16.0781 6.89062 17.0625 6 17.625C5.0625 18.1406 3.89062 18.1406 3 17.625C2.0625 17.0625 1.5 16.0781 1.5 15C1.5 13.9688 2.0625 12.9844 3 12.4219C3.89062 11.9062 5.0625 11.9062 6 12.4219C6.89062 12.9844 7.5 13.9688 7.5 15ZM0 22.5C0 20.8594 1.3125 19.5 3 19.5H6C7.64062 19.5 9 20.8594 9 22.5C9 23.3438 8.29688 24 7.5 24H1.5C0.65625 24 0 23.3438 0 22.5ZM18 15C18 16.0781 17.3906 17.0625 16.5 17.625C15.5625 18.1406 14.3906 18.1406 13.5 17.625C12.5625 17.0625 12 16.0781 12 15C12 13.9688 12.5625 12.9844 13.5 12.4219C14.3906 11.9062 15.5625 11.9062 16.5 12.4219C17.3906 12.9844 18 13.9688 18 15ZM10.5 22.5C10.5 20.8594 11.8125 19.5 13.5 19.5H16.5C18.1406 19.5 19.5 20.8594 19.5 22.5C19.5 23.3438 18.7969 24 18 24H12C11.1562 24 10.5 23.3438 10.5 22.5ZM25.5 18C24.4219 18 23.4375 17.4375 22.875 16.5C22.3594 15.6094 22.3594 14.4375 22.875 13.5C23.4375 12.6094 24.4219 12 25.5 12C26.5312 12 27.5156 12.6094 28.0781 13.5C28.5938 14.4375 28.5938 15.6094 28.0781 16.5C27.5156 17.4375 26.5312 18 25.5 18ZM24 19.5H27C28.6406 19.5 30 20.8594 30 22.5C30 23.3438 29.2969 24 28.5 24H22.5C21.6562 24 21 23.3438 21 22.5C21 20.8594 22.3125 19.5 24 19.5Z" fill="white"/>
</svg>
