<svg width="18" height="17" viewBox="0 0 18 17" fill="none" xmlns="http://www.w3.org/2000/svg">
<path d="M17.7068 6.72414C18.0586 7.62069 18.0938 8.62069 17.8124 9.55172C17.5661 10.4828 16.9681 11.3103 16.1941 11.8966L12.43 14.6552L10.5655 16L9.43974 16.8621C9.3342 16.931 9.15831 17 8.98241 17C8.84169 17 8.6658 16.931 8.52508 16.8621L7.39935 16L5.57003 14.6552L1.84104 11.8966H1.80586C1.03192 11.3103 0.433876 10.4828 0.187622 9.55172C-0.0938111 8.62069 -0.0586319 7.62069 0.29316 6.72414L0.328339 6.65517L2.7557 0.413793C2.82606 0.275862 2.89642 0.172414 3.03713 0.103448C3.10749 0.0344828 3.21303 0 3.31857 0C3.38893 0 3.49446 0 3.6 0.0344828C3.70554 0.0689655 3.7759 0.137931 3.84625 0.206897C3.91661 0.275862 3.95179 0.37931 3.98697 0.448276L5.64039 5.41379H12.3596L14.013 0.448276C14.0482 0.37931 14.0834 0.275862 14.1537 0.206897C14.2241 0.137931 14.2945 0.0689655 14.4 0.0344828C14.5055 0 14.6111 0 14.6814 0C14.787 0 14.8925 0.0344828 14.9629 0.103448C15.1036 0.172414 15.1739 0.275862 15.2443 0.413793L17.6717 6.65517L17.7068 6.72414Z" fill="white"/>
</svg>
