<svg width="69" height="54" viewBox="0 0 69 54" fill="none" xmlns="http://www.w3.org/2000/svg">
<path d="M7.43906 0.421875L12.6141 3.79688C13.8 4.64062 14.1234 6.22266 13.3688 7.38281C12.5063 8.54297 10.8891 8.85938 9.70312 8.01562L4.52813 4.64062C3.34219 3.90234 3.01875 2.32031 3.88125 1.16016C4.63594 0 6.25313 -0.316406 7.43906 0.421875ZM64.3641 4.64062L59.1891 8.01562C58.0031 8.85938 56.3859 8.54297 55.6313 7.38281C54.7687 6.22266 55.0922 4.64062 56.2781 3.79688L61.4531 0.421875C62.6391 -0.316406 64.2562 0 65.1188 1.16016C65.8734 2.32031 65.55 3.90234 64.3641 4.64062ZM2.5875 16.875H9.4875C10.8891 16.875 12.075 18.0352 12.075 19.4062C12.075 20.8828 10.8891 21.9375 9.4875 21.9375H2.5875C1.07812 21.9375 0 20.8828 0 19.4062C0 18.0352 1.07812 16.875 2.5875 16.875ZM59.5125 16.875H66.4125C67.8141 16.875 69 18.0352 69 19.4062C69 20.8828 67.8141 21.9375 66.4125 21.9375H59.5125C58.0031 21.9375 56.925 20.8828 56.925 19.4062C56.925 18.0352 58.0031 16.875 59.5125 16.875ZM12.6141 35.0156L7.43906 38.3906C6.25313 39.2344 4.63594 38.918 3.88125 37.7578C3.01875 36.5977 3.34219 35.0156 4.52813 34.1719L9.70312 30.7969C10.8891 30.0586 12.5063 30.375 13.3688 31.5352C14.1234 32.6953 13.8 34.2773 12.6141 35.0156ZM59.1891 30.9023L64.3641 34.2773C65.55 35.0156 65.8734 36.5977 65.1188 37.7578C64.2562 38.918 62.6391 39.2344 61.4531 38.4961L56.2781 35.1211C55.0922 34.2773 54.7687 32.6953 55.6313 31.5352C56.3859 30.375 58.0031 30.0586 59.1891 30.9023ZM48.4078 31.4297C46.2516 34.2773 44.0953 37.2305 43.125 40.5H25.875C24.7969 37.2305 22.6406 34.2773 20.4844 31.4297C19.9453 30.6914 19.4062 29.9531 18.8672 29.2148C16.7109 26.1562 15.525 22.5703 15.525 18.5625C15.525 8.33203 23.9344 0 34.5 0C44.9578 0 53.475 8.33203 53.475 18.5625C53.475 22.5703 52.1813 26.1562 50.025 29.2148C49.4859 29.9531 48.9469 30.6914 48.4078 31.4297ZM43.125 45.5625C43.125 50.3086 39.2438 54 34.5 54C29.6484 54 25.875 50.3086 25.875 45.5625V43.875H43.125V45.5625ZM34.5 10.125C35.3625 10.125 36.225 9.38672 36.225 8.4375C36.225 7.59375 35.3625 6.75 34.5 6.75C27.8156 6.75 22.425 12.1289 22.425 18.5625C22.425 19.5117 23.1797 20.25 24.15 20.25C25.0125 20.25 25.875 19.5117 25.875 18.5625C25.875 13.9219 29.6484 10.125 34.5 10.125Z" fill="white"/>
</svg>
