<svg width="117" height="30" viewBox="0 0 117 30" fill="none" xmlns="http://www.w3.org/2000/svg">
<path d="M11.0165 18.0892H4.88661V0H0V20.6498C0 22.2453 1.29838 23.54 2.89839 23.54H22.2796V18.0892H11.0139H11.0165Z" fill="white"/>
<path d="M11.0165 0V5.36973H17.1464V11.4823H22.2822V2.89019C22.2822 1.2947 20.9838 0 19.3838 0H11.0165Z" fill="white"/>
<path d="M32.0135 18.9968V0H28.6587V18.9968C28.6587 23.4144 32.8423 22.8782 32.8423 22.8782H35.4522V19.9881H32.8423C31.9715 19.9881 32.0135 18.9968 32.0135 18.9968Z" fill="white"/>
<path d="M81.0921 1.87797H77.7373V6.8946H75.812V9.4343H77.7373V18.9941C77.7373 23.4118 81.9209 22.8756 81.9209 22.8756H84.2606V19.9854H81.9209C81.0501 19.9854 81.0921 18.9941 81.0921 18.9941V9.4343H84.2606V6.8946H81.0921V1.87797Z" fill="white"/>
<path d="M72.8297 6.64874H69.4749V22.8992H72.8297V6.64874Z" fill="white"/>
<path d="M72.8297 0.0313866H69.4749V3.37668H72.8297V0.0313866Z" fill="white"/>
<path d="M96.6857 17.8616C96.6857 18.73 96.1899 19.9671 93.2076 19.9671C90.2253 19.9671 90.3512 17.8616 90.3512 17.8616V6.64874H86.9964V17.8616C86.9964 22.1354 90.102 22.8992 93.2076 22.8992C96.3132 22.8992 96.6857 21.3926 96.6857 21.3926V22.8992H100.04V6.64874H96.6857V17.8616Z" fill="white"/>
<path d="M112.835 0.0313866V8.16837C112.835 8.16837 112.214 6.27994 108.673 6.27994C105.132 6.27994 102.834 8.47962 102.834 12.7221V16.9645C102.834 19.6585 104.51 22.9018 108.673 22.9018C110.871 22.9018 112.132 22.206 112.835 21.5469V22.9018H116.19V0.0313866H112.835ZM112.835 16.4832C112.825 17.0796 112.626 19.9671 109.73 19.9671C106.498 19.9671 106.189 17.6759 106.189 16.9619V12.7194C106.189 12.7194 106.126 9.43692 109.481 9.43692C112.835 9.43692 112.835 12.7194 112.835 12.7194V16.4832Z" fill="white"/>
<path d="M44.0661 6.27733C36.9211 6.27733 37.2935 12.7194 37.2935 12.7194V16.9619C37.2935 23.2497 44.0661 22.8992 44.0661 22.8992C44.0661 22.8992 50.8386 23.2497 50.8386 16.9619V12.7194C50.8386 12.7194 51.2111 6.27733 44.0661 6.27733ZM47.4838 16.9619C47.4838 16.9619 47.2346 20.1528 44.0661 20.1528C40.8975 20.1528 40.6483 16.9619 40.6483 16.9619V12.7194C40.6483 9.18844 44.0661 9.43692 44.0661 9.43692C44.0661 9.43692 47.4838 9.18844 47.4838 12.7194V16.9619Z" fill="white"/>
<path d="M63.3869 7.65311C62.5397 6.82659 61.3436 6.27733 59.6597 6.27733C53.0734 6.27733 53.5717 12.7194 53.5717 12.7194V16.9619C53.5717 20.0587 55.2478 22.9018 59.101 22.9018C60.9397 22.9018 62.3823 22.2322 63.3869 21.1258V22.8966C63.3869 22.8966 63.665 26.7179 59.4892 26.7179C56.9265 26.7179 55.9954 25.2322 55.9954 25.2322L54.0072 27.4005C54.0072 27.4005 55.3108 29.8775 59.9718 29.8775C64.6329 29.8775 66.7444 26.1398 66.7444 22.8992V6.64874H63.3896V7.65311H63.3869ZM63.3869 12.9156V16.6846C63.3869 16.6846 62.8912 19.41 59.9692 19.41C57.0472 19.41 56.9239 16.9619 56.9239 16.9619V12.7194C56.9239 11.6052 57.2964 9.43692 59.4866 9.43692C63.1273 9.43692 63.3738 12.2408 63.3843 12.811V12.913L63.3869 12.9156Z" fill="white"/>
</svg>
