<svg width="57" height="79" viewBox="0 0 57 79" fill="none" xmlns="http://www.w3.org/2000/svg">
<path d="M56.0192 64.8939H0.00323308V65.2837H56.0192V64.8939Z" fill="white"/>
<path d="M1.86903 74.5769H3.04607C3.01697 75.2469 2.57073 75.6914 1.91754 75.6914C1.09296 75.6914 0.540014 75.0891 0.540014 74.1968C0.540014 73.3045 1.0962 72.7021 1.89167 72.7021C2.54162 72.7021 2.83912 73.0758 3.00727 73.3593L3.04607 73.4237L3.50524 73.1467L3.47291 73.0855C3.17541 72.5185 2.60953 72.1932 1.92077 72.1932C0.814871 72.1932 0.00970046 73.0372 0.00970046 74.1968C0.00970046 75.3564 0.79547 76.2004 1.92077 76.2004C2.36701 76.2004 2.78738 76.0168 3.09781 75.6914L3.16895 76.136H3.58285V74.0712H1.87227V74.5801L1.86903 74.5769Z" fill="white"/>
<path d="M9.28372 73.501C9.28372 72.802 8.7243 72.2544 8.00967 72.2544H6.36053V76.1328H6.89084V74.7476H7.92236L8.92479 76.1328H9.54564L8.48825 74.6768C8.71137 74.5704 9.28372 74.2226 9.28372 73.4978M8.7534 73.4978C8.7534 73.981 8.32334 74.2354 8.01291 74.2354H6.89731V72.7569H8.01291C8.32334 72.7569 8.7534 73.0146 8.7534 73.4946" fill="white"/>
<path d="M13.7299 72.19C12.624 72.19 11.8189 73.0339 11.8189 74.1936C11.8189 75.3532 12.6402 76.1972 13.7299 76.1972C14.8197 76.1972 15.641 75.3371 15.641 74.1936C15.641 73.05 14.8552 72.19 13.7299 72.19ZM13.7299 75.6914C12.9054 75.6914 12.3524 75.0891 12.3524 74.1968C12.3524 73.3045 12.9054 72.7021 13.7299 72.7021C14.5545 72.7021 15.1075 73.3045 15.1075 74.1968C15.1075 75.0891 14.5545 75.6914 13.7299 75.6914Z" fill="white"/>
<path d="M21.1252 74.5511C21.1252 75.3339 20.5626 75.6882 20.042 75.6882C19.5214 75.6882 18.9587 75.3307 18.9587 74.5511V72.2544H18.4284V74.6478C18.4284 75.4112 19.0331 76.1972 20.0452 76.1972C21.0573 76.1972 21.662 75.408 21.662 74.6478V72.2544H21.1317V74.5511H21.1252Z" fill="white"/>
<path d="M26.2182 72.2544H24.666V76.136H25.1964V74.8249H26.2182C26.8714 74.8249 27.5278 74.4287 27.5278 73.5397C27.5278 72.5926 26.8229 72.2544 26.2182 72.2544ZM26.9975 73.5397C26.9975 74.113 26.5771 74.316 26.2182 74.316H25.1964V72.7634H26.2182C26.5771 72.7634 26.9975 72.9663 26.9975 73.5397Z" fill="white"/>
<path d="M32.9506 72.7634V72.2544H30.5383V76.136H32.9506V75.627H31.0686V74.3804H32.8439V73.8714H31.0686V72.7634H32.9506Z" fill="white"/>
<path d="M55.2787 71.2333C53.8106 71.2333 53.4582 72.8149 52.8567 75.4144C52.0192 74.8797 52.6368 71.6585 50.771 71.6585C50.5059 71.6585 50.2052 71.7229 49.8333 71.8711C51.0168 74.1356 50.8066 76.8092 53.0669 76.8092C53.2609 76.8092 53.455 76.7931 53.6684 76.7609L56.0192 71.3492C55.7379 71.2848 55.4889 71.2365 55.2755 71.2365" fill="white"/>
<path d="M40.3265 75.4112C39.4889 74.8765 40.1066 71.6553 38.2408 71.6553C37.9756 71.6553 37.6749 71.7197 37.303 71.8679C38.4865 74.1324 38.2763 76.806 40.5366 76.806C40.7307 76.806 40.9247 76.7899 41.1381 76.7577L43.4889 71.346C43.2076 71.2816 42.9586 71.2333 42.7452 71.2333C41.2771 71.2333 40.9247 72.8149 40.3232 75.4144" fill="white"/>
<path d="M46.5221 75.5175C45.9562 74.5769 46.3248 71.6553 44.6207 71.6553C44.3555 71.6553 44.0548 71.7197 43.683 71.8679C44.7339 73.8811 44.653 76.2133 46.2052 76.7094C46.0532 77.2119 45.8398 77.6854 45.5196 77.6854C45.2739 77.6854 45.0087 77.6049 44.7242 77.6049C44.0516 77.6049 43.8576 77.898 43.6474 78.5519C44.2133 78.8611 44.7242 79.0093 45.1672 79.0093C46.2084 79.0093 46.9942 78.0687 47.518 76.7609C47.8479 75.9427 49.691 71.3492 49.691 71.3492C49.4776 71.2848 49.2836 71.2365 49.1251 71.2365C47.5536 71.2365 47.2335 72.831 46.5188 75.5207" fill="white"/>
<path d="M46.4671 5.86184L24.8342 27.3506C24.5432 27.6373 24.5399 28.1044 24.8213 28.4007L29.6426 33.4065C29.898 33.6739 30.3119 33.7125 30.6159 33.5031L56.113 15.8444C56.4946 15.5803 56.5463 15.0359 56.2197 14.7041L47.5342 5.86828C47.2432 5.57193 46.7614 5.56871 46.4671 5.86184Z" fill="white"/>
<path d="M46.4671 5.86184L24.8342 27.3506C24.5432 27.6373 24.5399 28.1044 24.8213 28.4007L29.6426 33.4065C29.898 33.6739 30.3119 33.7125 30.6159 33.5031L56.113 15.8444C56.4946 15.5803 56.5463 15.0359 56.2197 14.7041L47.5342 5.86828C47.2432 5.57193 46.7614 5.56871 46.4671 5.86184Z" fill="white"/>
<path d="M33.0217 7.47245L20.0226 23.7396C20.5399 24.2164 27.6345 31.303 27.6345 31.303L39.5407 12.868L33.0282 7.47245H33.0217Z" fill="white" style="mix-blend-mode:multiply"/>
<path d="M17.856 0.240814L0.0970087 26.6516C-0.0485041 26.8674 -0.0194019 27.1509 0.164914 27.3345L5.51009 32.6592C5.72351 32.8718 6.07274 32.8685 6.28292 32.6527L28.2295 10.1976C28.4397 9.985 28.4332 9.64355 28.2198 9.43417L18.6903 0.153841C18.4478 -0.0813079 18.0501 -0.0426531 17.8593 0.240814H17.856Z" fill="white"/>
<path d="M17.856 0.240814L0.0970087 26.6516C-0.0485041 26.8674 -0.0194019 27.1509 0.164914 27.3345L5.51009 32.6592C5.72351 32.8718 6.07274 32.8685 6.28292 32.6527L28.2295 10.1976C28.4397 9.985 28.4332 9.64355 28.2198 9.43417L18.6903 0.153841C18.4478 -0.0813079 18.0501 -0.0426531 17.8593 0.240814H17.856Z" fill="white"/>
<path d="M31.3855 7.65928L5.87872 25.0796C5.53919 25.3406 5.50685 25.8302 5.80758 26.1362L15.0945 35.4906C15.3888 35.787 15.8738 35.7773 16.1584 35.4745L36.8503 13.174C37.1058 12.897 37.1025 12.4782 36.8406 12.2076L31.8867 7.07946C31.628 6.8121 31.683 7.43058 31.3855 7.65928Z" fill="white" style="mix-blend-mode:multiply"/>
<path d="M33.5068 6.50287L9.7623 26.3649C9.43247 26.6419 9.41306 27.1412 9.72349 27.4408L18.5707 35.9931C18.8714 36.2863 19.3597 36.2637 19.6313 35.9448L39.6377 12.6006C39.8835 12.3107 39.8673 11.8823 39.5989 11.6149L34.493 6.54474C34.2246 6.2806 33.7978 6.26127 33.51 6.50287H33.5068Z" fill="white"/>
<path d="M9.13821 49.4417L14.4284 41.2051C14.5028 41.1213 14.6289 40.9892 14.8035 40.8056C14.9781 40.622 15.253 40.5318 15.6248 40.5318H17.5165C17.7202 40.5318 17.8981 40.5995 18.0468 40.7315C18.1956 40.8636 18.2699 41.0215 18.2699 41.2051V57.3305C18.2699 57.5141 18.1956 57.6719 18.0468 57.804C17.8981 57.9361 17.7235 58.0037 17.5165 58.0037H15.2627C15.059 58.0037 14.8811 57.9361 14.7324 57.804C14.5836 57.6719 14.5092 57.5141 14.5092 57.3305V47.5702L10.8908 53.188C10.7971 53.3201 10.6677 53.4586 10.4996 53.6003C10.3314 53.742 10.118 53.8129 9.8593 53.8129H8.41064C8.15195 53.8129 7.93854 53.742 7.77039 53.6003C7.60224 53.4586 7.47289 53.3233 7.37912 53.188L3.7607 47.5702V57.3305C3.7607 57.5141 3.68632 57.6719 3.53758 57.804C3.38883 57.9361 3.21422 58.0037 3.00727 58.0037H0.753433C0.549715 58.0037 0.371866 57.9361 0.223119 57.804C0.0743728 57.6719 0 57.5141 0 57.3305V41.2051C0 41.0215 0.0743728 40.8636 0.223119 40.7315C0.371866 40.5995 0.546481 40.5318 0.753433 40.5318H2.6451C3.01697 40.5318 3.28859 40.622 3.46644 40.8056C3.64106 40.9892 3.76717 41.1213 3.84154 41.2051L9.13174 49.4417H9.13821Z" fill="white"/>
<path d="M35.2529 58.0005C34.936 58.0005 34.6967 57.9264 34.5286 57.775C34.3604 57.6236 34.2408 57.5077 34.1664 57.4271L26.3702 47.0419V57.3273C26.3702 57.5109 26.2958 57.6687 26.147 57.8008C25.9983 57.9329 25.8237 58.0005 25.6167 58.0005H23.3629C23.1592 58.0005 22.9813 57.9329 22.8326 57.8008C22.6838 57.6687 22.6095 57.5109 22.6095 57.3273V41.2018C22.6095 41.0182 22.6838 40.8604 22.8326 40.7283C22.9813 40.5963 23.1559 40.5286 23.3629 40.5286H25.3128C25.6297 40.5286 25.8689 40.6027 26.0371 40.7541C26.2052 40.9055 26.3249 41.0215 26.3993 41.102L34.1955 51.484V41.2018C34.1955 41.0182 34.2699 40.8604 34.4186 40.7283C34.5674 40.5963 34.742 40.5286 34.949 40.5286H37.2028C37.4065 40.5286 37.5844 40.5963 37.7331 40.7283C37.8818 40.8604 37.9562 41.0182 37.9562 41.2018V57.3273C37.9562 57.5109 37.8818 57.6687 37.7331 57.8008C37.5844 57.9329 37.4097 58.0005 37.2028 58.0005H35.2529Z" fill="white"/>
<path d="M55.269 40.5286C55.4727 40.5286 55.6506 40.5963 55.7993 40.7283C55.9481 40.8604 56.0224 41.0182 56.0224 41.2018V42.9735C56.0224 43.1571 55.9481 43.315 55.7993 43.447C55.6506 43.5791 55.476 43.6467 55.269 43.6467H50.2569V57.324C50.2569 57.5077 50.1825 57.6655 50.0338 57.7976C49.885 57.9296 49.7104 57.9973 49.5035 57.9973H47.2496C47.0459 57.9973 46.8681 57.9296 46.7193 57.7976C46.5706 57.6655 46.4962 57.5077 46.4962 57.324V43.6467H41.4841C41.2804 43.6467 41.1025 43.5791 40.9538 43.447C40.805 43.315 40.7307 43.1571 40.7307 42.9735V41.2018C40.7307 41.0182 40.805 40.8604 40.9538 40.7283C41.1025 40.5963 41.2771 40.5286 41.4841 40.5286H55.269Z" fill="white"/>
</svg>
