<svg width="90" height="50" viewBox="0 0 90 50" fill="none" xmlns="http://www.w3.org/2000/svg">
<path d="M69.457 15.6527C68.4673 16.385 67.2977 16.8427 65.9481 16.8427C62.8891 16.8427 60.4599 14.3712 60.4599 11.3505C60.4599 8.32981 62.9791 5.85833 65.9481 5.85833C67.2977 5.85833 68.4673 6.31601 69.457 7.0483L70.6266 5.85833C69.367 4.75989 67.7475 4.11914 65.9481 4.11914C61.9894 4.11914 58.7505 7.32291 58.7505 11.259C58.7505 15.195 61.9894 18.3988 65.9481 18.3988C67.7475 18.3988 69.367 17.7581 70.6266 16.6596L69.457 15.6527Z" fill="white"/>
<path d="M48.2245 28.2848C48.7643 28.2848 49.3041 27.8271 49.3041 27.1863C49.3041 26.5456 48.8543 26.0879 48.2245 26.0879C47.6847 26.0879 47.1448 26.5456 47.1448 27.1863C47.1448 27.8271 47.5947 28.2848 48.2245 28.2848Z" fill="white"/>
<path d="M49.034 30.2985H47.4146V44.5782H49.034V30.2985Z" fill="white"/>
<path d="M13.5852 11.3505C13.5852 7.41441 10.5262 4.30217 6.8374 4.30217C4.85805 4.30217 2.96867 5.21753 1.70909 6.77365V4.30217H0.0896189V23.7079H1.70909V16.1104C2.96867 17.6665 4.85805 18.5818 6.8374 18.5818C10.5262 18.4903 13.5852 15.2865 13.5852 11.3505ZM6.74743 16.8427C3.95835 16.8427 1.70909 14.5542 1.61912 11.6251V11.442C1.61912 8.42131 3.95835 6.04136 6.74743 6.04136C9.53651 6.04136 11.8757 8.51284 11.8757 11.442C11.8757 14.3712 9.62648 16.8427 6.74743 16.8427Z" fill="white"/>
<path d="M19.7039 44.5782C21.6832 44.5782 23.5726 43.6629 24.8322 42.1067V44.5782H26.4516V30.2985H24.8322V32.77C23.5726 31.2139 21.6832 30.2985 19.7039 30.2985C16.0151 30.2985 12.9561 33.5023 12.9561 37.3468C12.9561 41.3744 16.0151 44.5782 19.7039 44.5782ZM14.5756 37.4384C14.5756 34.4177 16.9148 32.0377 19.7039 32.0377C22.4929 32.0377 24.8322 34.5092 24.8322 37.4384V37.6214C24.7422 40.5506 22.4929 42.839 19.7039 42.839C16.9148 42.9306 14.5756 40.4591 14.5756 37.4384Z" fill="white"/>
<path d="M44.3552 37.4384C44.3552 33.5023 41.2962 30.39 37.6074 30.39C35.6281 30.39 33.7387 31.3054 32.4791 32.8615V30.39H30.8597V49.7958H32.4791V42.1982C33.7387 43.7544 35.6281 44.6697 37.6074 44.6697C41.2962 44.5782 44.3552 41.3744 44.3552 37.4384ZM37.6074 42.9305C34.8184 42.9305 32.5691 40.6421 32.4791 37.713V37.5299C32.4791 34.5092 34.8184 32.1292 37.6074 32.1292C40.3965 32.1292 42.7358 34.6007 42.7358 37.5299C42.7358 40.4591 40.3965 42.9305 37.6074 42.9305Z" fill="white"/>
<path d="M25.9118 4.21065V12.632C25.9118 14.9204 24.1124 16.7511 21.7732 16.8427C19.5239 16.8427 17.7245 15.012 17.7245 12.632V4.21065H16.1051V12.632C16.1051 15.8358 18.6242 18.4903 21.7732 18.4903C24.9221 18.4903 27.5313 15.8358 27.5313 12.632V4.21065H25.9118Z" fill="white"/>
<path d="M37.6074 4.21068C35.6281 4.21068 33.7387 5.12604 32.4791 6.68216V0H30.8597V18.4904H32.4791V16.0189C33.7387 17.575 35.6281 18.4904 37.6074 18.4904C41.2962 18.4904 44.3552 15.2866 44.3552 11.4421C44.3552 7.41445 41.2962 4.21068 37.6074 4.21068ZM42.7358 11.4421C42.7358 14.4628 40.3965 16.8427 37.6074 16.8427C34.8184 16.8427 32.4791 14.3712 32.4791 11.4421V11.259C32.5691 8.32982 34.8184 6.0414 37.6074 6.0414C40.3965 5.94987 42.7358 8.42135 42.7358 11.4421Z" fill="white"/>
<path d="M54.7016 2.19687C55.2415 2.19687 55.7813 1.73919 55.7813 1.09844C55.7813 0.457682 55.3314 0 54.7016 0C54.1618 0 53.622 0.457682 53.622 1.09844C53.622 1.73919 54.0719 2.19687 54.7016 2.19687Z" fill="white"/>
<path d="M55.5121 4.21065H53.8926V18.4903H55.5121V4.21065Z" fill="white"/>
<path d="M75.3052 2.19687C75.845 2.19687 76.3849 1.73919 76.3849 1.09844C76.3849 0.457682 75.935 0 75.3052 0C74.7654 0 74.2256 0.457682 74.2256 1.09844C74.2256 1.73919 74.6754 2.19687 75.3052 2.19687Z" fill="white"/>
<path d="M76.1148 4.21065H74.4953V18.4903H76.1148V4.21065Z" fill="white"/>
<path d="M75.1249 30.2985C73.5954 30.2985 72.0659 30.9393 70.9863 32.1293V30.2985H69.3668V44.5782H70.9863V36.1569C71.0763 33.8685 72.8757 32.0377 75.1249 32.0377C77.3742 32.0377 79.1736 33.8685 79.1736 36.1569V44.5782H80.7931V36.1569C80.883 32.9531 78.2739 30.2985 75.1249 30.2985Z" fill="white"/>
<path d="M89.4302 42.9306H89.2503C89.0703 42.9306 88.8004 43.0222 88.4405 43.0222C87.8108 43.0222 87.4509 42.5645 87.4509 41.5576V31.8547H89.4302V30.2071H87.4509V25.4472H85.7414V30.2071H83.7621V31.8547H85.7414V41.6491C85.7414 42.7476 85.9214 43.3883 86.3712 43.846C86.7311 44.3037 87.3609 44.4867 87.9907 44.4867C88.5305 44.4867 88.9804 44.3952 89.3402 44.3037H89.4302V42.9306Z" fill="white"/>
<path d="M63.6089 40.4591C62.7092 42.0153 61.0897 42.9306 59.2903 42.9306C56.5912 42.9306 54.3419 40.7338 54.162 37.8961H65.2283C65.6782 37.8961 66.0381 37.53 66.0381 37.1638V37.0723C65.7682 33.3193 62.8891 30.4817 59.2903 30.4817C55.5116 30.4817 52.4526 33.6855 52.4526 37.6215C52.4526 41.5576 55.5116 44.6698 59.2903 44.6698C61.5396 44.6698 63.6989 43.4798 64.9584 41.466L63.6089 40.4591ZM59.3803 32.0378C61.8095 32.0378 63.8788 33.777 64.3286 36.2485H54.252C54.8818 33.777 56.8611 32.0378 59.3803 32.0378Z" fill="white"/>
<path d="M9.17698 37.713C9.17698 37.713 8.72713 37.3468 8.27728 37.1638C7.82742 36.9807 7.19763 36.7061 5.7581 36.4315C5.57816 36.3399 5.39822 36.3399 5.21828 36.3399C4.31858 36.0653 3.59882 35.7907 3.05899 35.4246C2.51917 34.9669 2.33923 34.6007 2.33923 34.1431C2.33923 33.5938 2.69911 33.1362 3.23893 32.6785C3.86873 32.2208 4.76843 31.9462 5.7581 32.0377C6.92772 32.1293 7.82742 32.6785 8.72713 33.4108L8.8171 33.5023L9.98671 32.4039C9.80677 32.2208 9.80677 32.2208 9.44689 31.9462C8.54719 31.3054 7.37757 30.5731 5.7581 30.5731C4.40855 30.4816 3.23893 30.7562 2.24926 31.397C1.25959 32.1293 0.629793 33.1362 0.629793 34.1431C0.629793 34.9669 0.809733 35.6992 1.5295 36.4315C2.4292 37.3468 3.9587 37.8045 5.21828 38.0791C6.3879 38.2622 7.37757 38.7199 7.91739 39.1776C8.54719 39.7268 8.8171 40.1845 8.8171 40.8252C8.8171 41.3744 8.36725 42.0152 7.73745 42.3813C7.10766 42.839 6.11799 43.1136 5.21828 43.1136C3.9587 43.0221 2.60914 42.4729 1.25959 41.466L1.16962 41.3744L0 42.4729L0.0899704 42.5644C1.61947 43.9375 3.3289 44.6698 5.12831 44.7613C6.47787 44.8528 7.64748 44.4867 8.63716 43.7544C9.7168 43.0221 10.3466 42.0152 10.3466 40.9168C10.7065 39.5437 10.0767 38.4453 9.17698 37.713Z" fill="white"/>
<path d="M88.3509 11.6251C88.3509 11.6251 87.9011 11.259 87.4512 11.0759C87.0014 10.8928 86.3716 10.6182 84.932 10.3436C84.7521 10.2521 84.5722 10.2521 84.3922 10.2521C83.4925 9.97745 82.7728 9.70284 82.2329 9.33669C81.6931 8.87901 81.5132 8.51287 81.5132 8.05518C81.5132 7.50596 81.8731 7.04828 82.4129 6.5906C83.0427 6.13292 83.9424 5.85831 84.932 5.94984C86.1017 6.04138 87.0014 6.5906 87.9011 7.32289L87.991 7.41443L89.1607 6.31599C88.9807 6.13292 88.9807 6.13292 88.6208 5.85831C87.7211 5.21755 86.5515 4.48526 84.932 4.48526C83.5825 4.39373 82.4129 4.66834 81.4232 5.30909C80.4335 6.04138 79.8037 7.04828 79.8037 8.05518C79.8037 8.87901 79.9837 9.6113 80.7034 10.3436C81.6031 11.259 83.1326 11.7166 84.3922 11.9912C85.5618 12.1743 86.5515 12.632 87.0913 13.0897C87.7211 13.6389 87.991 14.0966 87.991 14.7373C87.991 15.2866 87.5412 15.9273 86.9114 16.2935C86.2816 16.7511 85.2919 17.0258 84.3922 17.0258C83.1326 16.9342 81.7831 16.385 80.4335 15.3781L80.3436 15.2866L79.1739 16.385L79.2639 16.4765C80.7934 17.8496 82.5028 18.5819 84.3022 18.6734C85.6518 18.7649 86.8214 18.3988 87.8111 17.6665C88.8907 16.9342 89.5205 15.9273 89.5205 14.8289C89.8804 13.4558 89.3406 12.3574 88.3509 11.6251Z" fill="white"/>
<path d="M49.034 0.0915141H47.4146V18.4903H49.034V0.0915141Z" fill="white"/>
</svg>
