<svg width="130" height="15" viewBox="0 0 130 15" fill="none" xmlns="http://www.w3.org/2000/svg">
<path d="M102.815 6.22309C103.582 5.37262 104.756 4.42353 105.93 4.42353C106.84 4.42353 107.68 5.12884 107.68 6.10026C107.68 7.02516 107.106 7.53507 106.459 8.06917L106.387 8.14175H106.411L106.363 8.16594L106.387 8.14175C106.147 8.14175 105.956 7.94634 105.763 7.777L105.739 7.72861C105.668 7.65603 105.62 7.5574 105.62 7.48482C105.62 7.31362 105.813 7.09588 105.908 6.97306C105.956 6.92467 105.98 6.87629 106.027 6.8279C106.051 6.77952 106.075 6.73113 106.123 6.70694C106.171 6.65855 106.218 6.58598 106.266 6.53759C106.337 6.41663 106.409 6.2938 106.409 6.14865C106.409 5.88067 106.121 5.68713 105.883 5.68713H105.738C103.868 6.14865 102.261 8.67771 101.83 10.4289C101.783 10.7694 101.759 11.0616 101.759 11.4022C101.807 12.2042 102.285 12.6416 103.078 12.6658H103.102C104.492 12.6658 106.528 10.963 107.345 9.96736C107.561 9.74776 107.776 9.53003 107.992 9.28624C108.111 9.16528 108.256 9.02012 108.375 8.87311C108.64 8.60513 108.711 8.55674 109.047 8.48417H109.071C109.19 8.70376 109.285 8.92149 109.549 8.99407C109.573 9.13923 109.597 9.23786 109.621 9.35882C109.597 9.38301 109.597 9.40721 109.573 9.4314L108.016 11.0858C106.937 12.2284 104.78 13.907 103.102 13.907C101.544 13.907 100.537 12.8128 100.537 11.2086C100.539 9.43326 101.641 7.46435 102.815 6.22309Z" fill="white"/>
<path d="M113.913 9.99341C113.411 10.0902 112.668 10.2614 112.595 10.4066C112.066 11.7204 110.749 13.7861 109.168 13.7861C107.994 13.7861 107.73 12.7402 107.73 11.7669C107.73 9.8464 109.839 5.59036 111.685 5.59036C112.02 5.59036 112.739 5.9793 112.739 6.36825C112.739 6.61203 112.811 6.80557 112.859 7.00098C112.978 7.34153 113.051 7.68209 113.051 8.02265C113.051 8.09523 113.051 8.14361 113.027 8.21805V8.3874C113.004 8.45998 113.004 8.53441 113.004 8.60699C113.004 8.70376 113.004 8.80053 113.051 8.89917C113.075 8.99594 113.171 9.02013 113.268 9.02013C113.675 9.02013 114.61 8.53441 115.065 8.31482C115.137 8.26643 115.208 8.24224 115.258 8.21805L115.33 8.19386C115.401 8.14547 115.449 8.12128 115.496 8.12128C115.52 8.12128 115.544 8.21805 115.568 8.41345C115.568 8.53628 115.592 8.65724 115.592 8.80239C115.592 8.92336 115.568 9.07037 115.544 9.19134C115.449 9.55609 114.849 9.75149 114.442 9.87245C114.394 9.89664 114.322 9.89664 114.275 9.92084C114.225 9.94317 114.082 9.96736 113.913 9.99341ZM109.887 8.94755C109.311 9.70124 108.951 10.7471 108.951 11.646C108.951 11.9139 108.975 12.1801 109.047 12.4238C109.166 12.4722 109.263 12.4722 109.359 12.4722C110.054 12.4722 110.797 11.2812 111.109 10.7452L111.132 10.6969C111.204 10.6001 111.276 10.5015 111.276 10.3805C111.276 10.3563 111.252 10.3079 111.252 10.2595C111.011 10.0883 110.749 9.91898 110.509 9.74963C110.366 9.65286 110.269 9.48165 110.173 9.33649C110.102 9.21553 110.03 9.1169 109.933 9.02013L109.887 8.94755ZM111.661 8.92336C111.756 8.63119 111.828 8.36507 111.828 8.12128C111.828 7.90168 111.78 7.65976 111.635 7.39178C111.228 7.58718 111.083 7.90169 111.083 8.26644C111.085 8.5828 111.277 8.80053 111.661 8.92336Z" fill="white"/>
<path d="M128.895 7.58532C128.919 7.63371 128.943 7.6579 128.943 7.68209C128.99 7.82725 129.086 7.82725 129.207 7.82725C129.254 7.82725 129.278 7.85144 129.278 7.89983C129.326 7.94821 129.35 7.94821 129.374 7.9724H129.397C129.445 7.9966 129.445 7.9966 129.445 8.04498C129.469 8.06917 129.469 8.09337 129.469 8.09337C129.469 8.11756 129.469 8.11756 129.445 8.14175L129.374 8.23852C128.343 9.86687 127.193 11.4487 125.897 12.8333C125.466 13.319 124.914 13.7321 124.243 13.7321C123.619 13.7321 123.212 13.2948 123.188 12.5411C123.188 11.5194 123.379 10.5964 123.74 9.62308C123.957 8.99035 124.219 8.38368 124.459 7.75095L124.483 7.72676C124.507 7.62999 124.555 7.53135 124.555 7.41039C124.555 7.3862 124.555 7.31362 124.531 7.26523C124.483 7.24104 124.435 7.24104 124.388 7.24104C124.292 7.24104 124.219 7.28943 124.147 7.36201L124.124 7.3862C122.781 8.50464 121.464 10.4252 120.697 11.9567C120.578 12.1503 120.457 12.3457 120.337 12.5411C120.266 12.6379 120.194 12.7346 120.147 12.8333C119.93 12.8091 119.763 12.7849 119.595 12.7849C119.523 12.6881 119.426 12.6155 119.354 12.5411C119.259 12.4443 119.162 12.3717 119.114 12.2489C119.138 12.0796 119.185 11.8842 119.259 11.7148L119.33 11.5697C119.402 11.3259 119.497 11.1081 119.595 10.8885C119.954 9.93945 120.337 8.99221 120.602 7.99473C120.602 7.97054 120.625 7.92216 120.625 7.87377C120.649 7.777 120.697 7.68023 120.697 7.55741C120.697 7.50902 120.697 7.43644 120.649 7.36201C120.578 7.31362 120.53 7.28943 120.482 7.28943C120.411 7.28943 120.339 7.33781 120.266 7.3862C120.266 7.3862 120.242 7.41039 120.218 7.41039C117.966 8.8452 116.742 10.8625 115.425 13.1478C115.137 13.6577 114.873 14.1694 114.466 14.6068C114.249 14.5826 114.082 14.5584 113.866 14.5342C113.818 14.4858 113.794 14.4374 113.747 14.389C113.675 14.2923 113.603 14.1955 113.53 14.121C113.53 13.9256 113.554 13.7321 113.625 13.5367C113.673 13.3432 113.745 13.1236 113.792 12.904C114.44 10.8606 115.086 8.79495 115.95 6.82419C116.14 6.38686 116.333 5.94953 116.573 5.53453C116.74 5.19398 116.909 4.85342 117.292 4.70826C117.845 5.00043 117.868 5.02463 118.131 5.43776C117.412 6.45944 116.859 7.60207 116.452 8.91405C116.788 8.86567 116.883 8.74284 116.955 8.62188C117.793 7.77142 119.686 5.84904 120.862 5.75227C121.917 5.75227 122.012 6.53015 122.012 7.40667C122.084 7.40667 122.108 7.43086 122.155 7.43086C122.322 7.43086 122.419 7.3099 122.491 7.21127L122.539 7.16288C123.041 6.62692 124.265 5.53267 125.008 5.33913C125.079 5.33913 125.177 5.31494 125.224 5.31494C125.776 5.31494 126.063 5.80065 126.063 6.28823C126.063 6.3608 126.063 6.48177 126.039 6.55621C125.967 7.04192 125.846 7.5053 125.679 7.94263C125.488 8.45253 125.296 8.94011 125.127 9.42582C124.791 10.0586 124.432 11.2738 124.432 11.9549C124.432 12.0517 124.432 12.1261 124.479 12.2229C124.527 12.2471 124.575 12.2471 124.624 12.2471C124.744 12.2471 124.815 12.1987 124.865 12.1261C124.889 12.1019 124.912 12.0777 124.912 12.0777C126.182 10.7899 127.237 9.30486 128.172 7.77328L128.291 7.57974C128.339 7.53135 128.411 7.48297 128.458 7.45878L128.506 7.41039V7.48297C128.506 7.50716 128.53 7.50716 128.53 7.53135V7.60393C128.625 7.60393 128.625 7.60393 128.649 7.62812C128.673 7.62812 128.697 7.65232 128.744 7.65232H128.792V7.63371C128.84 7.60951 128.864 7.58532 128.911 7.58532H128.895Z" fill="white"/>
<path fill-rule="evenodd" clip-rule="evenodd" d="M80.0452 6.87628C80.0452 4.41422 81.7713 2.4081 84.2386 2.4081C86.5572 2.4081 88.4063 4.16857 88.4063 6.89675C88.4063 9.58586 86.5572 11.3482 84.2386 11.3482C81.7511 11.3463 80.0452 9.33835 80.0452 6.87628ZM77.5651 6.87628C77.5651 10.6634 80.5459 13.7507 84.2386 13.7507C86.1867 13.7507 87.4047 13.1068 88.4063 11.7818V13.5051H90.9102V0.247509H88.4063V1.95216C87.5349 0.815105 86.1298 0.00186097 84.2386 0.00186097C80.5459 0.00186097 77.5651 3.08921 77.5651 6.87628ZM66.4762 11.0988V13.5032H76.6919V11.1379H69.4809L76.6919 2.63513V0.247509H66.6615V2.61466H73.7422L66.4762 11.0988ZM54.0758 13.5051H56.5797V4.60404L62.4919 13.5051H64.8418V0.247509H62.4919V9.16714L56.5816 0.247509H54.0776V13.5051H54.0758ZM41.8368 5.74109C41.9487 3.69589 43.5996 2.37088 45.788 2.37088C47.8481 2.37088 49.3247 3.69589 49.5485 5.74109H41.8368ZM49.3816 9.6026C48.5708 10.9667 47.6243 11.3445 45.9935 11.3445C43.8418 11.3445 42.0789 9.77195 41.8753 7.89796H52.036V6.85581C52.036 2.12151 48.7396 0 45.9935 0C41.5103 0 39.265 3.31439 39.265 6.85581C39.265 10.2651 41.5103 13.7488 45.9935 13.7488C49.3266 13.7488 51.1261 12.007 51.9993 9.6026H49.3816ZM30.3829 2.61466H33.2409C34.9046 2.61466 35.5724 3.65681 35.5724 4.81061C35.5724 6.0221 34.9046 7.06424 33.2409 7.06424H30.3829V2.61466ZM27.9523 13.5051H30.4379V9.26205H32.4979L35.1266 13.5032H38.2249L35.0532 8.73167C36.7042 8.2199 38.0598 6.68646 38.0598 4.81247C38.0598 2.27411 36.2236 0.24937 33.4078 0.24937H27.9542V13.5051H27.9523ZM14.6439 6.87628C14.6439 4.41422 16.37 2.4081 18.8373 2.4081C21.1504 2.4081 23.005 4.16857 23.005 6.89675C23.005 9.58586 21.1504 11.3482 18.8373 11.3482C16.3517 11.3463 14.6439 9.33835 14.6439 6.87628ZM12.1583 6.87628C12.1583 10.6634 15.1465 13.7507 18.8373 13.7507C20.7781 13.7507 22.0034 13.1068 23.005 11.7818V13.5051H25.5089V0.247509H23.005V1.95216C22.1337 0.815105 20.723 0.00186097 18.8373 0.00186097C15.1447 0.00186097 12.1583 3.08921 12.1583 6.87628ZM8.4345 9.90594C8.4345 11.0802 7.43292 11.4785 5.8737 11.4785C4.64833 11.4785 3.09644 10.9481 2.65252 9.05362H0C0.500787 12.4443 2.98638 13.7507 5.83884 13.7507C8.58491 13.7507 11.0155 12.6137 11.0155 9.88733C11.0155 8.16407 9.94052 6.3273 7.62003 5.81553L5.0042 5.22933C3.65409 4.92599 3.28355 4.47191 3.28355 3.75172C3.28355 2.74865 4.20441 2.23689 5.63339 2.23689C7.09906 2.23689 7.93371 2.93661 8.19419 4.03644H10.8467C10.3276 1.57438 8.43449 0.00186097 5.63339 0.00186097C2.83779 0.00186097 0.667716 1.36595 0.667716 3.96014C0.667716 6.02396 2.26363 7.08471 3.88889 7.48296L6.67165 8.14546C7.93371 8.4488 8.4345 9.11131 8.4345 9.90594Z" fill="white"/>
<path d="M97.6865 10.3135H94.2984V13.7507H97.6865V10.3135Z" fill="white"/>
</svg>
