<svg width="18" height="18" viewBox="0 0 18 18" fill="none" xmlns="http://www.w3.org/2000/svg">
<path d="M11.6851 3.0239C12.594 2.11554 14.0412 1.23108 15.4047 2.59363C16.7681 3.95617 15.8831 5.40239 14.9741 6.31076L6.39867 14.8805C5.4897 15.7888 4.11428 16.745 2.67907 15.3108C1.25581 13.8765 2.20066 12.502 3.10963 11.5936L11.6851 3.0239Z" fill="white"/>
<path d="M9.0299 4.06375L7.21196 2.24701C7.06844 2.10359 6.93688 1.98406 6.79335 1.86454C6.98472 0.884463 7.54684 0 9.0299 0C10.513 0 11.0751 0.884463 11.2664 1.86454L11.2664 1.86455C11.1349 1.97212 11.0033 2.07968 10.8837 2.21116L9.0299 4.06375Z" fill="white"/>
<path d="M9.01794 13.8884L10.8718 15.741C11.0033 15.8606 11.1229 15.9681 11.2425 16.0877C11.0392 17.0797 10.4532 18 9.01794 18C7.59468 18 6.99668 17.0797 6.79335 16.0877C6.92492 15.9681 7.05648 15.8486 7.2 15.7052L9.01794 13.8884Z" fill="white"/>
<path d="M2.93023 6.64542H6.43455C6.43455 6.64542 2.04518 11.0677 1.91362 11.1873C0.92093 10.9841 0 10.3984 0 8.96414C0 7.05179 1.6505 6.64542 2.93023 6.64542Z" fill="white"/>
<path d="M11.6133 11.2948C11.6133 11.2948 16.0266 6.87251 16.1342 6.74103C17.115 6.93227 18 7.49402 18 8.9761C18 10.996 16.3495 11.2948 15.0698 11.2948H11.6133Z" fill="white"/>
<path d="M8.20465 4.87649L7.58272 5.49801C7.58272 5.49801 2.58339 5.50996 2.40399 5.52191C1.85382 4.69721 1.61462 3.68127 2.66711 2.62948C4.10232 1.20717 5.47774 2.1514 6.38671 3.05976L8.20465 4.87649Z" fill="white"/>
<path d="M9.84319 13.0637L10.4651 12.4422C10.4651 12.4422 15.4525 12.4303 15.6319 12.4183C16.194 13.2669 16.4332 14.3307 15.4166 15.3466C14.0532 16.6972 12.606 15.8247 11.697 14.9163L9.84319 13.0637Z" fill="white"/>
</svg>
