<svg width="54" height="54" viewBox="0 0 54 54" fill="none" xmlns="http://www.w3.org/2000/svg">
<path d="M35.332 25.8398L38.6016 22.5703L41.6602 23.0977C41.9766 24.3633 42.1875 25.6289 42.1875 27C42.1875 35.4375 35.332 42.1875 27 42.1875C18.5625 42.1875 11.8125 35.4375 11.8125 27C11.8125 18.668 18.5625 11.8125 27 11.8125C28.3711 11.8125 29.6367 12.0234 30.9023 12.3398L31.4297 15.3984L28.1602 18.668C27.7383 18.668 27.3164 18.5625 27 18.5625C22.2539 18.5625 18.5625 22.3594 18.5625 27C18.5625 31.7461 22.2539 35.4375 27 35.4375C31.6406 35.4375 35.4375 31.7461 35.4375 27C35.4375 26.6836 35.332 26.2617 35.332 25.8398ZM46.9336 23.625L52.418 18.1406C53.4727 20.8828 54 23.9414 54 27C54 41.9766 41.8711 54 27 54C12.0234 54 0 41.9766 0 27C0 12.1289 12.0234 0 27 0C30.0586 0 33.1172 0.527344 35.8594 1.58203L30.375 7.06641C29.2148 6.85547 28.0547 6.75 27 6.75C15.8203 6.75 6.75 15.8203 6.75 27C6.75 38.1797 15.8203 47.25 27 47.25C38.1797 47.25 47.25 38.1797 47.25 27C47.25 25.8398 47.1445 24.7852 46.9336 23.625ZM38.4961 19.0898L28.6875 28.793C27.7383 29.8477 26.1562 29.8477 25.207 28.793C24.1523 27.8438 24.1523 26.2617 25.207 25.207L34.9102 15.5039L33.9609 10.2305C33.8555 9.17578 34.1719 8.01562 34.9102 7.27734L40.2891 1.89844C41.2383 0.949219 42.6094 1.26562 43.1367 2.42578L45.5625 8.4375L51.5742 10.8633C52.7344 11.3906 53.0508 12.7617 52.1016 13.7109L46.7227 19.0898C45.9844 19.8281 44.9297 20.1445 43.7695 20.0391L38.4961 19.0898Z" fill="white"/>
</svg>
