<svg width="127" height="20" viewBox="0 0 127 20" fill="none" xmlns="http://www.w3.org/2000/svg">
<path d="M39.5806 1.62823H37.8754C37.3152 1.62823 36.8612 2.08582 36.8612 2.65029V18.146C36.8612 18.7104 37.3152 19.168 37.8754 19.168H39.5806C40.1407 19.168 40.5948 18.7104 40.5948 18.146V2.65029C40.5948 2.08582 40.1407 1.62823 39.5806 1.62823Z" fill="white"/>
<path d="M48.537 6.33637C45.0214 6.33637 42.1715 9.20833 42.1715 12.7512C42.1715 16.2941 45.0214 19.166 48.537 19.166C52.0526 19.166 54.9024 16.2941 54.9024 12.7512C54.9024 9.20833 52.0526 6.33637 48.537 6.33637ZM48.537 15.4505C47.0576 15.4505 45.8584 14.2421 45.8584 12.7512C45.8584 11.2603 47.0576 10.0519 48.537 10.0519C50.0164 10.0519 51.2155 11.2603 51.2155 12.7512C51.2155 14.2421 50.0164 15.4505 48.537 15.4505Z" fill="white"/>
<path d="M62.2139 6.33637C58.6983 6.33637 55.8485 9.20833 55.8485 12.7512C55.8485 16.2941 58.6983 19.166 62.2139 19.166C65.7295 19.166 68.5794 16.2941 68.5794 12.7512C68.5794 9.20833 65.7295 6.33637 62.2139 6.33637ZM62.2139 15.4505C60.7345 15.4505 59.5354 14.2421 59.5354 12.7512C59.5354 11.2603 60.7345 10.0519 62.2139 10.0519C63.6934 10.0519 64.8925 11.2603 64.8925 12.7512C64.8925 14.2421 63.6934 15.4505 62.2139 15.4505Z" fill="white"/>
<path d="M91.2594 6.33637C87.7438 6.33637 84.894 9.20833 84.894 12.7512C84.894 16.2941 87.7438 19.166 91.2594 19.166C94.775 19.166 97.6249 16.2941 97.6249 12.7512C97.6249 9.20833 94.775 6.33637 91.2594 6.33637ZM91.2594 15.4505C89.78 15.4505 88.5809 14.2421 88.5809 12.7512C88.5809 11.2603 89.78 10.0519 91.2594 10.0519C92.7389 10.0519 93.938 11.2603 93.938 12.7512C93.938 14.2421 92.7389 15.4505 91.2594 15.4505Z" fill="white"/>
<path d="M70.6603 18.8227C71.6096 18.8227 72.3792 18.0472 72.3792 17.0905C72.3792 16.1339 71.6096 15.3583 70.6603 15.3583C69.711 15.3583 68.9415 16.1339 68.9415 17.0905C68.9415 18.0472 69.711 18.8227 70.6603 18.8227Z" fill="white"/>
<path d="M15.7287 12.4569C15.2673 11.2721 12.3396 4.29814 12.3396 4.29814C12.3396 4.29814 10.8174 0.58067 7.93636 0.58067C6.96306 0.58067 6.36739 0.58067 6.00337 0.58067C6.00337 0.58067 5.70359 0.478661 5.56538 0.286412C5.42717 0.092201 5.34347 0 5.23446 0C5.12545 0 5.04174 0.092201 4.90353 0.286412C4.76532 0.480622 4.46554 0.58067 4.46554 0.58067H1.38405C1.38405 0.58067 0 0.539474 0 2.16574C0 3.79201 0.698836 4.3001 1.45996 4.3001H4.47333C4.49864 4.30795 4.77506 4.40799 4.90743 4.5924C5.04564 4.78661 5.12934 4.87881 5.23835 4.87881C5.34736 4.87881 5.43107 4.78661 5.56928 4.5924C5.70165 4.40799 5.97807 4.30795 6.00337 4.3001H7.15772C7.15772 4.3001 8.42497 4.21182 8.90967 5.3967C9.39438 6.58158 14.1188 17.5927 14.1188 17.5927C14.1188 17.5927 14.8021 19.168 16.3788 19.168V13.6418C16.3788 13.6418 16.1939 13.6418 15.7326 12.4569H15.7287Z" fill="white"/>
<path d="M17.0388 12.4569C17.5001 11.2721 20.4278 4.29814 20.4278 4.29814C20.4278 4.29814 21.9501 0.58067 24.8311 0.58067C25.8044 0.58067 26.4 0.58067 26.7641 0.58067C26.7641 0.58067 27.0638 0.478661 27.2021 0.286412C27.3403 0.092201 27.424 0 27.533 0C27.642 0 27.7257 0.092201 27.8639 0.286412C28.0021 0.480622 28.3019 0.58067 28.3019 0.58067H31.3873C31.3873 0.58067 32.7713 0.537513 32.7713 2.16378C32.7713 3.79005 32.0725 4.29814 31.3114 4.29814H28.298C28.2727 4.30598 27.9963 4.40603 27.8639 4.59044C27.7257 4.78465 27.642 4.87685 27.533 4.87685C27.424 4.87685 27.3403 4.78465 27.2021 4.59044C27.0697 4.40603 26.7933 4.30598 26.768 4.29814H25.6136C25.6136 4.29814 24.3464 4.20986 23.8617 5.39474C23.3769 6.57962 18.6525 17.5908 18.6525 17.5908C18.6525 17.5908 17.9498 19.166 16.375 19.166V13.6399C16.375 13.6399 16.5794 13.6399 17.0388 12.455V12.4569Z" fill="white"/>
<path d="M29.1273 6.77579C25.7304 6.77579 22.9779 9.54967 22.9779 12.9729C22.9779 13.6359 23.0811 14.2755 23.2738 14.8758C24.0544 17.3181 26.3008 19.0974 28.9676 19.166C29.0202 19.168 29.0747 19.168 29.1273 19.168C29.1798 19.168 29.2343 19.168 29.2869 19.166C31.2491 19.1405 32.9835 18.6227 34.0717 17.834C34.0717 17.834 34.0756 17.834 34.0775 17.8321C34.0775 17.8321 34.9068 17.1965 34.6518 16.5256C34.6518 16.5236 34.6518 16.5216 34.6518 16.5197C34.6031 16.3706 34.5233 16.2274 34.4357 16.1038C34.2644 15.8605 34.0717 15.6918 34.0717 15.6918C34.0717 15.6918 33.3884 14.9483 32.9893 14.9483C32.5903 14.9483 32.3041 15.2269 32.3041 15.2269C32.3041 15.2269 31.1225 16.094 29.7774 16.094C28.4323 16.094 27.6108 15.3897 27.3714 15.1641C27.1339 14.9405 26.9568 14.6384 27.0483 14.3755C27.1417 14.1126 27.6245 14.1813 27.6245 14.1813H34.1028C34.1963 14.1813 34.2819 14.1754 34.3617 14.1617C34.9165 14.0734 35.1618 13.7007 35.2669 13.3299C35.2727 13.2122 35.2766 13.0945 35.2766 12.9748C35.2766 9.55164 32.5241 6.77776 29.1292 6.77776L29.1273 6.77579ZM27.0463 11.021C27.9457 9.6968 29.2596 9.789 29.2596 9.789C29.2596 9.789 30.7215 9.6968 31.7221 11.021C32.1581 11.5781 31.6462 11.8567 31.2101 11.8567H27.5077C27.1164 11.8567 26.6551 11.5781 27.0463 11.021Z" fill="white"/>
<path d="M115.518 5.09264L116.279 2.60713C116.279 2.60713 116.303 1.97938 117.478 2.18928C118.654 2.39919 119.76 2.72287 119.76 2.72287C119.76 2.72287 120.336 2.93866 119.921 3.61938C119.507 4.3001 118.423 6.27752 118.423 6.27752C118.423 6.27752 118.123 6.95039 117.179 6.69537C116.235 6.44034 115.795 6.25398 115.795 6.25398C115.795 6.25398 115.222 6.05977 115.518 5.09264Z" fill="white"/>
<path d="M119.16 7.18384L122.941 3.04852C122.941 3.04852 123.632 2.09512 124.346 3.04852C125.061 4.00192 125.822 4.90431 125.822 4.90431C125.822 4.90431 126.445 5.62623 125.522 6.25398C124.599 6.88173 121.142 9.66934 121.142 9.66934C121.142 9.66934 120.243 10.4815 119.482 9.36723C118.72 8.25297 118.419 7.99207 119.158 7.18384H119.16Z" fill="white"/>
<path d="M114.358 7.23092C113.391 7.23092 112.283 7.32312 111.53 8.14508C110.776 8.96508 110.591 8.91996 110.362 8.91996C109.316 8.91996 109.423 7.23092 106.566 7.23092C104.506 7.23092 104.292 8.05092 103.722 8.05092C102.815 8.11565 103.107 7.59383 102.484 7.42709C102.396 7.3957 102.305 7.37608 102.207 7.37608H99.8907C99.4197 7.37608 99.0362 7.7645 99.0362 8.23728V18.3048C99.0362 18.7796 99.4216 19.166 99.8907 19.166H102.207C102.678 19.166 103.062 18.7776 103.062 18.3048V13.4457C103.066 13.0788 103.169 11.0249 104.89 11.0249C106.256 11.0249 106.523 12.198 106.566 12.8493V18.3068C106.566 18.7815 106.951 19.168 107.42 19.168H109.859C110.33 19.168 110.714 18.7796 110.714 18.3068V13.6281C110.716 13.5889 110.718 13.5477 110.718 13.5025C110.718 13.5025 110.656 11.0249 112.567 11.0249C114.479 11.0249 114.261 13.273 114.261 13.273L114.278 13.2495V18.3068C114.278 18.7815 114.664 19.168 115.133 19.168H117.572C118.043 19.168 118.426 18.7796 118.426 18.3068V12.2647C118.426 12.2647 118.872 7.23092 114.354 7.23092H114.358Z" fill="white"/>
<path d="M84.2088 17.2337C84.8064 16.5864 84.1679 15.8939 84.1679 15.8939C84.1679 15.8939 84.1679 15.839 83.5372 15.2897C82.9065 14.7404 81.6626 14.8012 81.2597 15.1367C80.6134 15.7448 80.0527 15.7703 80.0527 15.7703C79.9554 15.784 79.8561 15.7938 79.753 15.7938C78.5402 15.7938 77.5552 14.6364 77.5552 13.2083C77.5552 11.7802 78.5383 10.6227 79.753 10.6227C79.825 10.6227 79.8951 10.6267 79.9632 10.6345C79.9632 10.6345 79.9651 10.6345 79.9671 10.6345C80.444 10.6384 80.9131 11.0112 81.5361 11.3505C82.159 11.6899 83.0583 11.3035 83.9947 10.4991C84.8901 9.73015 83.9012 8.70809 83.8136 8.61785C82.7099 7.66249 81.2538 7.07594 79.6556 7.06221C79.6537 7.06221 79.6517 7.06221 79.6479 7.06221H79.0172C79.0172 7.06221 79.0172 7.06221 79.0152 7.06221C79.0094 7.06221 79.0016 7.06221 78.9957 7.06221C75.8442 7.06221 73.4226 9.58695 73.4226 13.1161C73.4226 16.6452 75.8442 19.17 78.9957 19.17C78.9996 19.17 79.0035 19.17 79.0074 19.17C79.0113 19.17 79.0152 19.1719 79.0191 19.1719H79.6498C79.6498 19.1719 79.6615 19.17 79.6673 19.168C81.4621 19.1484 83.0758 18.4088 84.2127 17.2357L84.2088 17.2337Z" fill="white"/>
</svg>
