<svg width="21" height="21" viewBox="0 0 21 21" fill="none" xmlns="http://www.w3.org/2000/svg">
<path d="M19.5938 2.54688L12.0938 10.0469L19.5312 17.4844C20.1562 18.0469 20.1562 18.9844 19.5312 19.5469C18.9688 20.1719 18.0312 20.1719 17.4688 19.5469L9.96875 12.1094L2.53125 19.5469C1.96875 20.1719 1.03125 20.1719 0.46875 19.5469C-0.15625 18.9844 -0.15625 18.0469 0.46875 17.4219L7.90625 9.98438L0.46875 2.54688C-0.15625 1.98438 -0.15625 1.04688 0.46875 0.421875C1.03125 -0.140625 1.96875 -0.140625 2.59375 0.421875L10.0312 7.92188L17.4688 0.484375C18.0312 -0.140625 18.9688 -0.140625 19.5938 0.484375C20.1562 1.04688 20.1562 1.98438 19.5938 2.54688Z" fill="#019AFE"/>
</svg>
