<svg width="67" height="47" viewBox="0 0 67 47" fill="none" xmlns="http://www.w3.org/2000/svg">
<path d="M7.5375 5.875C7.5375 3.77679 8.58437 1.88839 10.4688 0.839286C12.2484 -0.209821 14.4469 -0.209821 16.3312 0.839286C18.1109 1.88839 19.2625 3.77679 19.2625 5.875C19.2625 8.07812 18.1109 9.96652 16.3312 11.0156C14.4469 12.0647 12.2484 12.0647 10.4688 11.0156C8.58437 9.96652 7.5375 8.07812 7.5375 5.875ZM6.7 22.4509C5.65312 23.6049 5.025 25.1786 5.025 26.8571C5.025 28.6406 5.65312 30.2143 6.7 31.3683V22.4509ZM21.775 17.3103C18.6344 20.0379 16.75 24.1295 16.75 28.5357C16.75 32.2076 18.0063 35.4598 20.1 38.0826V40.2857C20.1 42.1741 18.5297 43.6429 16.75 43.6429H10.05C8.16562 43.6429 6.7 42.1741 6.7 40.2857V37.558C2.72187 35.6696 0 31.5781 0 26.8571C0 20.4576 5.23438 15.1071 11.725 15.1071H15.075C17.5875 15.1071 19.8906 15.9464 21.775 17.3103ZM46.9 40.2857V38.0826C48.9937 35.4598 50.25 32.2076 50.25 28.5357C50.25 24.1295 48.2609 20.0379 45.1203 17.3103C47.0047 15.9464 49.4125 15.1071 51.925 15.1071H55.275C61.6609 15.1071 67 20.4576 67 26.8571C67 31.5781 64.1734 35.6696 60.3 37.558V40.2857C60.3 42.1741 58.7297 43.6429 56.95 43.6429H50.25C48.3656 43.6429 46.9 42.1741 46.9 40.2857ZM47.7375 5.875C47.7375 3.77679 48.7844 1.88839 50.6687 0.839286C52.4484 -0.209821 54.6469 -0.209821 56.5312 0.839286C58.3109 1.88839 59.4625 3.77679 59.4625 5.875C59.4625 8.07812 58.3109 9.96652 56.5312 11.0156C54.6469 12.0647 52.4484 12.0647 50.6687 11.0156C48.7844 9.96652 47.7375 8.07812 47.7375 5.875ZM60.3 22.4509V31.3683C61.3469 30.2143 61.975 28.6406 61.975 26.9621C61.975 25.1786 61.3469 23.6049 60.3 22.4509ZM33.5 0C35.8031 0 38.0016 1.36384 39.2578 3.35714C40.4094 5.45536 40.4094 8.07812 39.2578 10.0714C38.0016 12.1696 35.8031 13.4286 33.5 13.4286C31.0922 13.4286 28.8937 12.1696 27.6375 10.0714C26.4859 8.07812 26.4859 5.45536 27.6375 3.35714C28.8937 1.36384 31.0922 0 33.5 0ZM25.125 28.5357C25.125 30.3192 25.7531 31.7879 26.8 33.0469V24.1295C25.7531 25.2835 25.125 26.8571 25.125 28.5357ZM40.2 24.1295V33.0469C41.2469 31.8929 41.875 30.3192 41.875 28.6406C41.875 26.8571 41.2469 25.2835 40.2 24.1295ZM46.9 28.5357C46.9 33.2567 44.0734 37.3482 40.2 39.2366V43.6429C40.2 45.5312 38.6297 47 36.85 47H30.15C28.2656 47 26.8 45.5312 26.8 43.6429V39.2366C22.8219 37.3482 20.1 33.2567 20.1 28.5357C20.1 22.1362 25.3344 16.7857 31.825 16.7857H35.175C41.5609 16.7857 46.9 22.1362 46.9 28.5357Z" fill="white"/>
</svg>
