<svg width="30" height="18" viewBox="0 0 30 18" fill="none" xmlns="http://www.w3.org/2000/svg">
<path d="M0 3C0 1.35938 1.3125 0 3 0H27C28.6406 0 30 1.35938 30 3V15C30 16.6875 28.6406 18 27 18H3C1.3125 18 0 16.6875 0 15V3ZM15 3V15H27V3H15ZM8.34375 5.25C8.20312 4.92188 7.82812 4.6875 7.5 4.6875C7.125 4.6875 6.75 4.92188 6.60938 5.25L3.60938 12C3.42188 12.4688 3.60938 13.0312 4.07812 13.2656C4.59375 13.4531 5.10938 13.2656 5.34375 12.7969L5.76562 11.8125H9.1875L9.60938 12.7969C9.84375 13.2656 10.4062 13.4531 10.875 13.2656C11.3438 13.0312 11.5312 12.4688 11.3438 12L8.34375 5.25ZM7.5 7.96875L8.39062 9.9375H6.60938L7.5 7.96875ZM21 4.6875C21.5156 4.6875 21.9375 5.10938 21.9375 5.625V5.8125H24.75C25.2656 5.8125 25.6875 6.23438 25.6875 6.75C25.6875 7.26562 25.2656 7.6875 24.75 7.6875H24.6562L24.5625 7.92188C24.1406 9.04688 23.5312 10.125 22.6875 10.9688C22.7344 11.0156 22.7812 11.0156 22.8281 11.0625L23.7188 11.5781C24.1406 11.8594 24.2812 12.4219 24.0469 12.8906C23.7656 13.3125 23.2031 13.4531 22.7344 13.2188L21.8906 12.6562C21.6562 12.5625 21.4688 12.4219 21.2344 12.2812C20.7656 12.6094 20.25 12.9375 19.6406 13.1719L19.5 13.2656C19.0312 13.4531 18.4688 13.2656 18.2344 12.7969C18.0469 12.2812 18.2812 11.7656 18.75 11.5312L18.8906 11.4844C19.2188 11.3438 19.5 11.1562 19.7812 11.0156L19.2188 10.4531C18.8438 10.0781 18.8438 9.46875 19.2188 9.09375C19.5469 8.71875 20.1562 8.71875 20.5312 9.09375L21.1875 9.79688H21.2344C21.7969 9.1875 22.2656 8.48438 22.6406 7.6875H17.625C17.1094 7.6875 16.6875 7.26562 16.6875 6.75C16.6875 6.23438 17.1094 5.8125 17.625 5.8125H20.0625V5.625C20.0625 5.10938 20.4844 4.6875 21 4.6875Z" fill="white"/>
</svg>
