<svg width="122" height="15" viewBox="0 0 122 15" fill="none" xmlns="http://www.w3.org/2000/svg">
<path d="M14.3542 1.14547e-06V14.5622H8.82041L3.12032 1.43518V14.5622H0V1.14547e-06H5.51282L11.2336 13.1682V1.14547e-06H14.3542Z" fill="white"/>
<path d="M25.7533 8.86211L23.4857 1.31034L21.2183 8.86211H25.7533ZM26.5855 11.6082H20.4068L19.5124 14.5622H16.1214L21.01 1.14547e-06H25.982L30.8709 14.5622H27.4799L26.5855 11.6082Z" fill="white"/>
<path d="M46.9921 1.14547e-06V14.5622H41.4585L35.7582 1.43518V14.5622H32.6379V1.14547e-06H38.1507L43.8715 13.1682V1.14547e-06H46.9921Z" fill="white"/>
<path d="M77.8973 2.82945H73.404V14.5625H70.1378V2.82945H65.6235V0.000256585H77.8973V2.82945Z" fill="white"/>
<path d="M91.1275 11.8161V14.5622H79.977V0H90.9819V2.72507H83.2431V5.76251H90.0665V8.48784H83.2431V11.8161H91.1275Z" fill="white"/>
<path d="M96.7016 6.57373H100.342C101.819 6.57373 102.776 5.80421 102.776 4.57649C102.776 3.39099 101.819 2.64193 100.342 2.64193H96.7016V6.57373ZM103.879 10.4851L105.98 14.5622H102.235L99.635 9.23664H96.7016V14.5622H93.4355V1.14547e-06H100.509C103.733 1.14547e-06 106.021 1.72658 106.021 4.59774C106.021 7.30208 104.149 8.90381 101.424 9.19494C102.381 9.27835 103.4 9.54875 103.879 10.4851Z" fill="white"/>
<path d="M116.755 8.86211L114.487 1.31034L112.22 8.86211H116.755ZM117.587 11.6082H111.408L110.514 14.5622H107.123L112.012 1.14547e-06H116.984L121.872 14.5622H118.481L117.587 11.6082Z" fill="white"/>
<path d="M56.4938 12.1384C53.8115 12.1384 51.6371 9.96366 51.6371 7.28163C51.6371 4.59906 53.8115 2.42491 56.4938 2.42491C59.1761 2.42491 61.3505 4.59906 61.3505 7.28163C61.3505 9.96366 59.1761 12.1384 56.4938 12.1384ZM49.2132 14.5622H63.7746V0.00106185H49.2132V14.5622Z" fill="white"/>
</svg>
