<svg width="54" height="54" viewBox="0 0 54 54" fill="none" xmlns="http://www.w3.org/2000/svg">
<path d="M38.8885 0C40.6849 0 42.2701 1.05409 43.2211 2.52982C44.1722 4.11095 44.1722 6.11373 43.2211 7.58946C42.2701 9.17059 40.6849 10.1193 38.8885 10.1193C36.9863 10.1193 35.4012 9.17059 34.4501 7.58946C33.499 6.11373 33.499 4.11095 34.4501 2.52982C35.4012 1.05409 36.9863 0 38.8885 0ZM27.3699 16.8655C25.8904 16.8655 24.411 17.4979 23.3542 18.552L20.9237 20.9764C19.6556 22.3467 17.4364 22.3467 16.1683 20.9764C14.7945 19.7115 14.7945 17.4979 16.1683 16.233L18.5988 13.8086C20.9237 11.4896 24.0939 10.1193 27.3699 10.1193C28.5323 10.1193 29.8004 10.3301 30.9628 10.7517L36.1409 12.3329C39.9452 13.4924 43.1155 16.3384 44.5949 20.0277L45.3346 21.6089C45.863 22.8738 47.0254 23.6116 48.3992 23.6116H50.6184C52.5205 23.6116 54 25.1928 54 26.9847C54 28.8821 52.5205 30.3578 50.6184 30.3578H48.3992C44.2779 30.3578 40.5793 27.9334 39.0998 24.1387L38.4658 22.8738L35.2955 31.5173L41.2133 35.312C43.1155 36.4715 44.0665 38.7906 43.4325 41.0041L40.3679 51.5451C39.8395 53.337 38.0431 54.3911 36.2466 53.8641C34.4501 53.337 33.3933 51.5451 33.9217 49.7531L36.5636 40.3717L27.4755 34.6796C24.8337 32.993 23.6712 29.7254 24.6223 26.7739L27.8982 16.9709C27.6869 16.9709 27.5812 16.8655 27.3699 16.8655ZM21.6634 32.7822C22.4031 34.6796 23.7769 36.3661 25.6791 37.5256L26.6301 38.1581L25.4677 40.8987C24.6223 42.6907 22.8258 43.8502 20.818 43.8502H13.5264C11.6243 43.8502 10.1448 42.3745 10.1448 40.4771C10.1448 38.6851 11.6243 37.104 13.5264 37.104H19.7613L21.6634 32.7822ZM1.6908 10.1193H15.2172C16.0626 10.1193 16.908 10.8571 16.908 11.8058C16.908 12.7545 16.0626 13.4924 15.2172 13.4924H1.6908C0.739726 13.4924 0 12.7545 0 11.8058C0 10.8571 0.739726 10.1193 1.6908 10.1193ZM0 18.552C0 17.6033 0.739726 16.8655 1.6908 16.8655H8.45401C9.29941 16.8655 10.1448 17.6033 10.1448 18.552C10.1448 19.5007 9.29941 20.2385 8.45401 20.2385H1.6908C0.739726 20.2385 0 19.5007 0 18.552ZM1.6908 23.6116H15.2172C16.0626 23.6116 16.908 24.3495 16.908 25.2982C16.908 26.2469 16.0626 26.9847 15.2172 26.9847H1.6908C0.739726 26.9847 0 26.2469 0 25.2982C0 24.3495 0.739726 23.6116 1.6908 23.6116Z" fill="white"/>
</svg>
