<svg width="114" height="48" viewBox="0 0 114 48" fill="none" xmlns="http://www.w3.org/2000/svg">
<path d="M4.5915 40.9146C3.01751 40.4375 2.3279 40.1347 2.3279 39.2344C2.3279 38.4288 3.40083 38.1429 4.31973 38.1429C5.12354 38.1429 5.98756 38.3819 6.57448 38.7661C6.71347 38.8564 6.88432 38.8838 7.04367 38.8396C7.20302 38.7971 7.33757 38.6864 7.41194 38.5386L7.67928 38.0039C7.8103 37.7401 7.72443 37.4196 7.47745 37.2576C6.63202 36.7052 5.4325 36.3626 4.34717 36.3626C2.06675 36.3626 0.53348 37.5338 0.53348 39.2769C0.53348 41.5414 2.44652 42.1141 3.98156 42.5754C5.58919 43.0569 6.29208 43.3668 6.28323 44.3237C6.28323 45.2842 5.15276 45.626 4.09487 45.626C3.08125 45.626 1.97822 45.0868 1.30808 44.468C1.17441 44.345 1.00178 44.2742 0.822959 44.2945C0.643252 44.3149 0.48302 44.4185 0.390068 44.5743L0.0819983 45.0948C-0.0552167 45.3241 -0.0171509 45.6171 0.17318 45.8048C1.16732 46.7839 2.6643 47.3929 4.08071 47.3929C6.47091 47.3929 8.07677 46.1527 8.07677 44.314C8.09536 41.9778 6.15221 41.3882 4.5915 40.9146Z" fill="white"/>
<path d="M15.1224 36.7291C15.0277 36.5228 14.8214 36.39 14.5939 36.39H13.9618C13.7334 36.39 13.5272 36.5228 13.4333 36.7309L8.97695 46.5563C8.8955 46.7369 8.91055 46.945 9.01678 47.1114C9.12479 47.2787 9.30803 47.3779 9.50545 47.3779H10.1517C10.3801 47.3779 10.5872 47.2442 10.6811 47.0362L11.7921 44.5804H16.7938L17.9181 47.0388C18.0128 47.2451 18.219 47.3779 18.4457 47.3779H19.0928C19.2911 47.3779 19.4743 47.2769 19.5815 47.1105C19.6886 46.945 19.7027 46.736 19.6204 46.5546L15.1224 36.7291ZM12.5702 42.8276L14.2734 39.052L15.9962 42.8276H12.5702Z" fill="white"/>
<path d="M22.5365 36.3909H21.9469C21.6264 36.3909 21.3661 36.6512 21.3661 36.9716V46.7971C21.3661 47.1185 21.6264 47.3779 21.9469 47.3779H22.5365C22.8569 47.3779 23.1172 47.1185 23.1172 46.7971V36.9716C23.1172 36.6512 22.8569 36.3909 22.5365 36.3909Z" fill="white"/>
<path d="M34.7948 36.3909H34.2185C33.8963 36.3909 33.6369 36.6512 33.6369 36.9716V44.1281L28.1217 36.6273C28.012 36.4777 27.8385 36.3909 27.6534 36.3909H26.9647C26.6434 36.3909 26.384 36.6512 26.384 36.9716V46.7971C26.384 47.1185 26.6434 47.3779 26.9647 47.3779H27.5543C27.8756 47.3779 28.1359 47.1185 28.1359 46.7971V39.6442L33.6369 47.1424C33.7458 47.2902 33.9202 47.3779 34.1061 47.3779H34.7948C35.1153 47.3779 35.3755 47.1185 35.3755 46.7971V36.9716C35.3755 36.6512 35.1153 36.3909 34.7948 36.3909Z" fill="white"/>
<path d="M44.9293 36.3909H37.703C37.3825 36.3909 37.1231 36.6512 37.1231 36.9716V37.5488C37.1231 37.8684 37.3825 38.1287 37.703 38.1287H40.4411V46.7971C40.4411 47.1185 40.7014 47.3779 41.0218 47.3779H41.6105C41.9327 47.3779 42.193 47.1185 42.193 46.7971V38.1287H44.9293C45.2507 38.1287 45.5101 37.8684 45.5101 37.5488V36.9716C45.5101 36.6512 45.2507 36.3909 44.9293 36.3909Z" fill="white"/>
<path d="M49.2509 41.7468H46.1153C45.7949 41.7468 45.5346 42.0061 45.5346 42.3275V42.8055C45.5346 43.1269 45.7949 43.3863 46.1153 43.3863H49.2509C49.5714 43.3863 49.8308 43.1269 49.8308 42.8055V42.3275C49.8308 42.0061 49.5714 41.7468 49.2509 41.7468Z" fill="white"/>
<path d="M61.4594 41.3944H60.9247C60.922 41.3944 60.9185 41.3953 60.915 41.3953H59.171C58.8497 41.3953 58.5894 41.6556 58.5894 41.976V42.5665C58.5894 42.887 58.8497 43.1472 59.171 43.1472H60.3449V44.9434C59.6605 45.4126 58.8381 45.6676 58.0016 45.6676C55.8336 45.6676 54.0701 43.9679 54.0701 41.8778C54.0701 39.7948 55.8336 38.1004 58.0016 38.1004C59.0081 38.1004 59.9987 38.4713 60.7202 39.1184C60.8388 39.2246 60.9964 39.2786 61.1549 39.2654C61.3142 39.253 61.4603 39.1751 61.5603 39.0511L61.9118 38.6156C62.1065 38.3721 62.0773 38.018 61.8418 37.8127C60.7866 36.8876 59.4215 36.3759 58.0016 36.3759C54.8678 36.3759 52.3173 38.8431 52.3173 41.8778C52.3173 44.9186 54.8545 47.3912 57.9732 47.3912C59.3835 47.3912 60.791 46.8742 61.8392 45.9721C61.9666 45.8623 62.041 45.7012 62.041 45.5312V41.9751C62.041 41.6556 61.7799 41.3944 61.4594 41.3944Z" fill="white"/>
<path d="M69.697 36.3759C66.5711 36.3759 64.0278 38.8431 64.0278 41.8769C64.0278 44.9186 66.5711 47.3912 69.697 47.3912C72.8228 47.3912 75.367 44.9186 75.367 41.8769C75.367 38.8431 72.8228 36.3759 69.697 36.3759ZM69.697 45.6534C67.544 45.6534 65.793 43.959 65.793 41.8769C65.793 39.8018 67.544 38.1145 69.697 38.1145C71.849 38.1145 73.6001 39.8018 73.6001 41.8769C73.6001 43.959 71.849 45.6534 69.697 45.6534Z" fill="white"/>
<path d="M84.6713 41.5732C85.2626 41.0642 85.5911 40.3144 85.5911 39.4026C85.5911 37.5444 84.1941 36.39 81.9456 36.39H77.9247C77.6052 36.39 77.3449 36.6503 77.3449 36.9708V46.7971C77.3449 47.1176 77.6052 47.3779 77.9247 47.3779H81.9739C84.5474 47.3779 86.0824 46.173 86.0824 44.1555C86.0824 43.0135 85.5663 42.1053 84.6713 41.5732ZM81.9314 40.8464H79.0959V38.1287H81.9314C82.8007 38.1287 83.8391 38.3615 83.8391 39.4734C83.8391 40.3843 83.1973 40.8464 81.9314 40.8464ZM79.0959 42.5842H81.9314C82.8273 42.5842 84.3305 42.7789 84.3305 44.0838C84.3305 45.3701 83.0265 45.6401 81.9314 45.6401H79.0959V42.5842Z" fill="white"/>
<path d="M93.213 36.7291C93.1183 36.5228 92.9121 36.39 92.6845 36.39H92.0525C91.8232 36.39 91.6169 36.5228 91.5222 36.7309L87.0667 46.5563C86.9853 46.7369 87.0003 46.945 87.1083 47.1114C87.2154 47.2787 87.3987 47.3779 87.597 47.3779H88.2432C88.4716 47.3779 88.6787 47.2442 88.7726 47.0362L89.8836 44.5804H94.8835L96.0078 47.0388C96.1025 47.2451 96.3097 47.3779 96.5363 47.3779H97.1825C97.38 47.3779 97.565 47.2769 97.6712 47.1105C97.7783 46.945 97.7934 46.736 97.711 46.5546L93.213 36.7291ZM90.6609 42.8276L92.3641 39.052L94.0868 42.8276H90.6609Z" fill="white"/>
<path d="M100.626 36.3909H100.036C99.7152 36.3909 99.4541 36.6512 99.4541 36.9716V46.7971C99.4541 47.1185 99.7152 47.3779 100.036 47.3779H100.626C100.947 47.3779 101.209 47.1185 101.209 46.7971V36.9716C101.209 36.6512 100.947 36.3909 100.626 36.3909Z" fill="white"/>
<path d="M112.884 36.3909H112.307C111.987 36.3909 111.727 36.6512 111.727 36.9716V44.1281L106.211 36.6273C106.102 36.4777 105.928 36.3909 105.743 36.3909H105.054C104.733 36.3909 104.473 36.6512 104.473 36.9716V46.7971C104.473 47.1185 104.733 47.3779 105.054 47.3779H105.645C105.965 47.3779 106.225 47.1185 106.225 46.7971V39.6442L111.727 47.1424C111.836 47.2902 112.01 47.3779 112.195 47.3779H112.884C113.205 47.3779 113.464 47.1185 113.464 46.7971V36.9716C113.464 36.6512 113.205 36.3909 112.884 36.3909Z" fill="white"/>
<path d="M63.7845 20.9733V30.6332H62.006V19.6445L63.7845 20.9733ZM98.2626 30.6013H91.2664L91.2169 30.5527L85.0634 24.4665C84.8129 24.2186 84.4269 24.1425 84.1003 24.2788C83.7692 24.4169 83.555 24.7374 83.555 25.0959V30.6332H81.7269V16.9303C81.7269 16.6877 81.6251 16.4531 81.4489 16.2867L76.3366 11.4585C76.1719 11.3027 75.955 11.2168 75.7284 11.2168H73.1727C72.684 11.2168 72.2865 11.6143 72.2865 12.1021V30.6332H70.4726V0.883219C70.4726 0.522031 70.2566 0.200695 69.9229 0.0643647C69.5953 -0.070195 69.2023 0.0112429 68.9562 0.261769L60.4896 8.8532C60.3249 9.01963 60.2346 9.24094 60.2346 9.47465V16.1114L56.7679 13.5229C56.4528 13.2883 55.9907 13.2963 55.6844 13.5415L47.802 19.8605C47.5914 20.0296 47.471 20.2819 47.471 20.5519V30.6332H45.6845V25.0765C45.6845 23.1253 44.3407 21.0512 41.8522 21.0512C39.3629 21.0512 38.0199 23.1351 38.0199 25.0959V30.6332L36.2131 30.6323V26.8629C36.2131 25.3349 35.1614 23.7123 33.2121 23.7123C31.2628 23.7123 30.2111 25.3367 30.2111 26.8664V30.6341L28.4114 30.635L28.4105 30.4677C28.4078 29.7081 28.4051 28.7352 28.4051 28.3448C28.4051 27.047 27.18 25.9095 25.783 25.9095C24.3861 25.9095 23.1609 27.0417 23.1609 28.3333V30.6332L15.2679 30.6323C14.7793 30.6323 14.3827 31.0298 14.3818 31.5176C14.3818 31.7548 14.4738 31.977 14.6412 32.1443C14.8085 32.3117 15.0307 32.4037 15.267 32.4037L24.0461 32.4046C24.2825 32.4046 24.5056 32.3126 24.672 32.1452C24.8393 31.9779 24.9323 31.7557 24.9323 31.5194V28.4935C24.9323 28.166 25.289 27.68 25.783 27.68C26.2699 27.68 26.6346 28.1244 26.6346 28.5219C26.6346 28.7494 26.6435 31.5247 26.6435 31.5247C26.6461 32.0116 27.0427 32.4073 27.5287 32.4073L31.0972 32.4046C31.585 32.4046 31.9825 32.0071 31.9825 31.5194V26.8664C31.9825 26.3875 32.2392 25.4828 33.2121 25.4828C34.185 25.4828 34.4426 26.3849 34.4426 26.8629V31.5167C34.4426 32.0054 34.8392 32.4028 35.327 32.4028L38.9043 32.4046C39.138 32.4046 39.3664 32.3099 39.5311 32.1452C39.6957 31.9806 39.7905 31.7522 39.7905 31.5194V25.0959C39.7905 24.3098 40.2216 22.8217 41.8522 22.8217C43.3642 22.8217 43.9131 24.1699 43.9131 25.0765V31.5194C43.9131 32.0071 44.3106 32.4046 44.7984 32.4046H48.3562C48.8449 32.4046 49.2415 32.0071 49.2415 31.5194V20.9768L49.3052 20.9255L56.2571 15.3519L60.2346 18.3219V31.5194C60.2346 32.0071 60.6321 32.4046 61.1199 32.4046H64.6706C65.1584 32.4046 65.5559 32.0071 65.5559 31.5194V20.5289C65.5559 20.2518 65.4222 19.9862 65.2 19.8198L62.006 17.434V9.83761L62.0547 9.78804L68.7012 3.04325V31.5194C68.7012 32.0071 69.0987 32.4046 69.5865 32.4046H73.1727C73.6604 32.4046 74.0579 32.0071 74.0579 31.5194V12.9874H75.3761L79.9555 17.3118V31.5194C79.9555 32.0071 80.353 32.4046 80.8408 32.4046H84.4402C84.9289 32.4046 85.3264 32.0071 85.3264 31.5194V27.217L90.2794 32.116C90.4467 32.2807 90.668 32.3719 90.9017 32.3719H98.2626C98.7513 32.3719 99.1488 31.9744 99.1488 31.4866C99.1488 30.9979 98.7513 30.6013 98.2626 30.6013Z" fill="white"/>
</svg>
