<svg width="25" height="25" viewBox="0 0 25 25" fill="none" xmlns="http://www.w3.org/2000/svg">
<path d="M13.8133 0.84375L16.8601 7.07812L23.5633 8.0625C24.1258 8.15625 24.5945 8.53125 24.782 9.09375C24.9695 9.60938 24.8289 10.2188 24.407 10.5938L19.532 15.4219L20.7039 22.2656C20.7976 22.8281 20.5633 23.3906 20.0945 23.7188C19.6258 24.0938 19.0164 24.0938 18.5008 23.8594L12.5008 20.625L6.45388 23.8594C5.98513 24.0938 5.37576 24.0938 4.90701 23.7188C4.43826 23.3906 4.20388 22.8281 4.29763 22.2656L5.42263 15.4219L0.547631 10.5938C0.172631 10.2188 0.0320063 9.60938 0.172631 9.09375C0.360131 8.53125 0.828881 8.15625 1.39138 8.0625L8.14138 7.07812L11.1414 0.84375C11.3758 0.328125 11.8914 0 12.5008 0C13.0633 0 13.5789 0.328125 13.8133 0.84375Z" fill="white"/>
</svg>
