<svg width="18" height="18" viewBox="0 0 18 18" fill="none" xmlns="http://www.w3.org/2000/svg">
<path d="M9.01758 0C12.2168 0 15.1699 1.72266 16.7871 4.5C18.4043 7.3125 18.4043 10.7227 16.7871 13.5C15.1699 16.3125 12.2168 18 9.01758 18C5.7832 18 2.83008 16.3125 1.21289 13.5C-0.404297 10.7227 -0.404297 7.3125 1.21289 4.5C2.83008 1.72266 5.7832 0 9.01758 0ZM11.4434 4.53516C11.0918 4.46484 10.7402 4.60547 10.5996 4.95703L9.89648 6.64453C9.79102 6.92578 9.86133 7.24219 10.1074 7.45312L10.9863 8.15625C10.3887 9.38672 9.36914 10.4062 8.13867 10.9688L7.43555 10.125C7.22461 9.87891 6.9082 9.80859 6.62695 9.91406L4.93945 10.6172C4.62305 10.7578 4.44727 11.1094 4.51758 11.4609L4.93945 13.0078C5.04492 13.2891 5.32617 13.5 5.64258 13.5C9.9668 13.5 13.5176 9.98438 13.5176 5.625C13.5176 5.30859 13.3066 5.0625 12.9902 4.95703L11.4434 4.53516Z" fill="white"/>
</svg>
