<svg width="58" height="39" viewBox="0 0 58 39" fill="none" xmlns="http://www.w3.org/2000/svg">
<path d="M46.7083 0H57.9952L43.5839 38.9994L39.1308 27.6311L39.3354 19.7518L46.7083 0Z" fill="white"/>
<path d="M22.7749 38.9994L29.6548 20.4681L23.3194 6.97256L18.5928 19.7518L15.3287 24.7958L22.7749 38.9994Z" fill="white"/>
<path d="M22.7749 38.9994C22.0391 27.6475 18.5928 19.7518 18.5928 19.7518L11.2868 0H0L5.20684 14.0908C7.75834 20.5883 14.2397 35.0302 22.7749 38.9994Z" fill="#016DB4"/>
<path d="M43.5172 38.9994C42.7814 27.6475 39.3354 19.7518 39.3354 19.7518L32.0294 0H20.7426L25.9494 14.0908C28.5009 20.5883 34.982 35.0302 43.5172 38.9994Z" fill="#016DB4"/>
</svg>
